<svg width="21" height="20" viewBox="0 0 21 20" fill="none" xmlns="http://www.w3.org/2000/svg">
<g clip-path="url(#clip0_6_456)">
<path fill-rule="evenodd" clip-rule="evenodd" d="M15.5834 8.71145C15.5834 5.03787 11.2323 3.10005 8.50171 5.55754C8.19383 5.83464 7.71961 5.80968 7.44252 5.50179C7.16543 5.19391 7.19039 4.71969 7.49827 4.4426C11.1941 1.11636 17.0834 3.73921 17.0834 8.71145V10.6894L19.1363 8.63642C19.4292 8.34352 19.9041 8.34352 20.197 8.63642C20.4899 8.92931 20.4899 9.40418 20.197 9.69708L16.868 13.0261L16.8593 13.0347L16.3333 13.5607L15.803 13.0304L12.4697 9.69708C12.1768 9.40418 12.1768 8.92931 12.4697 8.63642C12.7626 8.34352 13.2374 8.34352 13.5303 8.63642L15.5834 10.6895L15.5834 8.71145ZM4.66665 6.43943L4.13632 6.96976L0.802983 10.3031C0.51009 10.596 0.51009 11.0709 0.802983 11.3638C1.09588 11.6566 1.57075 11.6566 1.86364 11.3638L3.91661 9.31079L3.91661 11.2887C3.91661 16.261 9.80586 18.8838 13.5017 15.5576C13.8096 15.2805 13.8345 14.8063 13.5574 14.4984C13.2804 14.1905 12.8061 14.1655 12.4983 14.4426C9.7677 16.9001 5.41661 14.9623 5.41661 11.2887L5.41661 9.31071L7.46965 11.3638C7.76254 11.6566 8.23742 11.6566 8.53031 11.3638C8.8232 11.0709 8.8232 10.596 8.53031 10.3031L5.19698 6.96976L4.66665 6.43943Z" fill="white"/>
</g>
<defs>
<clipPath id="clip0_6_456">
<rect width="20" height="20" fill="white" transform="translate(0.5)"/>
</clipPath>
</defs>
</svg>
